<?xml version="1.0" encoding="utf-8"?>
<!-- Generator: Adobe Illustrator 16.0.0, SVG Export Plug-In . SVG Version: 6.00 Build 0)  -->
<!DOCTYPE svg PUBLIC "-//W3C//DTD SVG 1.1//EN" "http://www.w3.org/Graphics/SVG/1.1/DTD/svg11.dtd">
<svg version="1.1" id="Capa_1" xmlns="http://www.w3.org/2000/svg" xmlns:xlink="http://www.w3.org/1999/xlink" x="0px" y="0px"
	 width="512px" height="512px" viewBox="0 0 512 512" enable-background="new 0 0 512 512" xml:space="preserve">
<g id="Close">
	<path fill="#232323" d="M316.852,256L499.398,73.453c16.804-16.804,16.804-44.048,0-60.849c-16.804-16.804-44.045-16.804-60.849,0
		L256,195.153L73.451,12.601c-16.804-16.804-44.045-16.804-60.849,0c-16.801,16.804-16.801,44.048,0,60.85l182.549,182.547
		L12.602,438.548c-16.801,16.804-16.801,44.048,0,60.849c16.804,16.804,44.045,16.804,60.849,0L256,316.846l182.55,182.55
		c16.801,16.804,44.045,16.804,60.849,0s16.804-44.045,0-60.849L316.852,256z"/>
</g>
</svg>
